<?xml version="1.0" encoding="iso-8859-1"?>
<!-- Generator: Adobe Illustrator 19.0.0, SVG Export Plug-In . SVG Version: 6.00 Build 0)  -->
<svg version="1.1" id="Layer_1" xmlns="http://www.w3.org/2000/svg" xmlns:xlink="http://www.w3.org/1999/xlink" x="0px" y="0px"
	 viewBox="0 0 509.287 509.287" style="enable-background:new 0 0 509.287 509.287;" xml:space="preserve">
<circle style="fill:#4F5565;" cx="254.644" cy="254.644" r="254.644"/>
<polygon style="fill:#F6CEB0;" points="398.072,386.204 398.75,385.187 427.232,385.187 428.249,386.204 419.433,405.192 
	406.887,405.192 "/>
<path style="fill:#F1F3F7;" d="M419.433,405.192l-3.391,7.46c-1.356,2.034-4.069,2.034-5.425,0l-3.391-7.46H419.433z"/>
<path style="fill:#D54232;" d="M406.887,386.204c3.052,3.73,8.816,3.73,11.868,0c0-41.706,0-216.328,0-257.695
	c-4.069,0-8.138,0-11.868,0C406.887,169.875,406.887,344.498,406.887,386.204z"/>
<path style="fill:#BF3025;" d="M398.072,386.204c2.374,3.73,6.781,3.73,9.155,0c0-41.706,0-216.328,0-257.695
	c-3.052,0-6.103,0-9.155,0C398.072,169.875,398.072,344.498,398.072,386.204z"/>
<path style="fill:#F0582F;" d="M419.094,386.204c2.374,3.73,6.781,3.73,9.155,0c0-41.706,0-216.328,0-257.695
	c-3.052,0-6.103,0-9.155,0C419.094,169.875,419.094,344.498,419.094,386.204z"/>
<path style="fill:#FBD303;" d="M404.514,94.94h17.293c3.73,0,6.442,3.052,6.442,6.442v26.787h-30.177v-26.787
	C398.072,97.992,400.784,94.94,404.514,94.94z"/>
<g>
	<path style="fill:#F8B517;" d="M396.715,117.319h32.89c1.017,0,2.034,1.017,2.034,2.034c0,1.017-1.017,2.034-2.034,2.034h-32.89
		c-1.017,0-2.034-1.017-2.034-2.034C394.681,118.336,395.359,117.319,396.715,117.319z"/>
	<path style="fill:#F8B517;" d="M396.715,124.101h32.89c1.017,0,2.034,1.017,2.034,2.034c0,1.017-1.017,2.034-2.034,2.034h-32.89
		c-1.017,0-2.034-1.017-2.034-2.034C394.681,125.118,395.359,124.101,396.715,124.101z"/>
</g>
<path style="fill:#6EB1E1;" d="M327.544,85.107H121.727v338.734h205.817c20.344,0,36.959-16.615,36.959-36.959V122.066
	C364.503,101.722,347.889,85.107,327.544,85.107z"/>
<rect x="91.211" y="75.274" style="fill:#F1F3F7;" width="30.177" height="358.4"/>
<rect x="176.996" y="202.766" style="fill:#FCFCFD;" width="132.238" height="103.756"/>
<g>
	<rect x="194.628" y="219.719" style="fill:#646B79;" width="14.58" height="14.58"/>
	<rect x="223.788" y="219.719" style="fill:#646B79;" width="67.476" height="14.58"/>
	<rect x="194.628" y="247.184" style="fill:#646B79;" width="14.58" height="14.58"/>
	<rect x="223.788" y="247.184" style="fill:#646B79;" width="67.476" height="14.58"/>
	<rect x="194.628" y="274.649" style="fill:#646B79;" width="14.58" height="14.58"/>
	<rect x="223.788" y="274.649" style="fill:#646B79;" width="67.476" height="14.58"/>
</g>
<rect x="145.801" y="85.107" style="fill:#4485C5;" width="7.46" height="338.734"/>
<g>
</g>
<g>
</g>
<g>
</g>
<g>
</g>
<g>
</g>
<g>
</g>
<g>
</g>
<g>
</g>
<g>
</g>
<g>
</g>
<g>
</g>
<g>
</g>
<g>
</g>
<g>
</g>
<g>
</g>
</svg>
